# xmcd CD database file
#
# Track frame offsets:
#	150
#	14625
#	25357
#	40022
#	61055
#	74582
#	85997
#	104225
#	114862
#	126855
#	145410
#	159125
#	171185
#	188627
#	199772
#
# Disc length: 2809 seconds
#
# Revision: 1
# Processed by: cddbd v1.5.2PL0 Copyright (c) Steve Scherf et al.
# Submitted via: CDValet v3.40 - Copyright (c) 1996 - 1998 Greg Leichner
#
DISCID=d00af70f
DTITLE=Dobson, Richard - Amigos - Richard Dobson Sings Townes V
DTITLE=an Zandt
DYEAR=1900
DGENRE=
TTITLE0=White Freightliner Blues
TTITLE1=Buckskin Stallion
TTITLE2=The Catfish Song
TTITLE3=Pancho And Lefty
TTITLE4=Come Tomorrow
TTITLE5=No Place To Fall
TTITLE6=Quicksilver Daydreams Of Maria
TTITLE7=Loretta
TTITLE8=If I Needed You
TTITLE9=Snowing On Raton
TTITLE10=Don't You Take It So Bad
TTITLE11=Dollar Bill Blues
TTITLE12=Two Girls
TTITLE13=Turnstiled Junkpiled
TTITLE14=Still Looking For You
EXTD=
EXTT0=
EXTT1=
EXTT2=
EXTT3=
EXTT4=
EXTT5=
EXTT6=
EXTT7=
EXTT8=
EXTT9=
EXTT10=
EXTT11=
EXTT12=
EXTT13=
EXTT14=
PLAYORDER=
